<svg xmlns="http://www.w3.org/2000/svg" version="1.1" xmlns:xlink="http://www.w3.org/1999/xlink" xmlns:svgjs="http://svgjs.com/svgjs" width="1440" height="560" preserveAspectRatio="none" viewBox="0 0 1440 560"><g mask="url(&quot;#SvgjsMask1008&quot;)" fill="none"><rect width="1440" height="560" x="0" y="0" fill="rgba(42, 59, 71, 1)"></rect><path d="M1440 0L754.6 0L1440 169.81z" fill="rgba(255, 255, 255, .1)"></path><path d="M754.6 0L1440 169.81L1440 221.14L450.07000000000005 0z" fill="rgba(255, 255, 255, .075)"></path><path d="M450.07000000000005 0L1440 221.14L1440 355.53999999999996L244.56000000000006 0z" fill="rgba(255, 255, 255, .05)"></path><path d="M244.55999999999995 0L1440 355.53999999999996L1440 404.09999999999997L161.24999999999994 0z" fill="rgba(255, 255, 255, .025)"></path><path d="M0 560L317.45 560L0 384.9z" fill="rgba(0, 0, 0, .1)"></path><path d="M0 384.9L317.45 560L403.79999999999995 560L0 289.9z" fill="rgba(0, 0, 0, .075)"></path><path d="M0 289.9L403.79999999999995 560L811.72 560L0 137.92999999999998z" fill="rgba(0, 0, 0, .05)"></path><path d="M0 137.92999999999995L811.72 560L1253.15 560L0 88.59999999999995z" fill="rgba(0, 0, 0, .025)"></path></g><defs><mask id="SvgjsMask1008"><rect width="1440" height="560" fill="#ffffff"></rect></mask></defs></svg>