<svg xmlns="http://www.w3.org/2000/svg" version="1.1" xmlns:xlink="http://www.w3.org/1999/xlink" xmlns:svgjs="http://svgjs.com/svgjs" width="1440" height="560" preserveAspectRatio="none" viewBox="0 0 1440 560"><g mask="url(&quot;#SvgjsMask1006&quot;)" fill="none"><rect width="1440" height="560" x="0" y="0" fill="rgba(42, 59, 71, 1)"></rect><path d="M207 60L206 -181" stroke-width="10" stroke="url(#SvgjsLinearGradient1007)" stroke-linecap="round" class="Up"></path><path d="M1026 28L1025 -247" stroke-width="8" stroke="url(#SvgjsLinearGradient1007)" stroke-linecap="round" class="Up"></path><path d="M842 170L841 -230" stroke-width="6" stroke="url(#SvgjsLinearGradient1008)" stroke-linecap="round" class="Down"></path><path d="M1399 328L1398 139" stroke-width="6" stroke="url(#SvgjsLinearGradient1007)" stroke-linecap="round" class="Up"></path><path d="M358 404L357 87" stroke-width="10" stroke="url(#SvgjsLinearGradient1008)" stroke-linecap="round" class="Down"></path><path d="M1360 115L1359 -213" stroke-width="6" stroke="url(#SvgjsLinearGradient1007)" stroke-linecap="round" class="Up"></path><path d="M808 75L807 344" stroke-width="8" stroke="url(#SvgjsLinearGradient1008)" stroke-linecap="round" class="Down"></path><path d="M431 80L430 439" stroke-width="8" stroke="url(#SvgjsLinearGradient1007)" stroke-linecap="round" class="Up"></path><path d="M17 321L16 -76" stroke-width="10" stroke="url(#SvgjsLinearGradient1008)" stroke-linecap="round" class="Down"></path><path d="M806 465L805 70" stroke-width="10" stroke="url(#SvgjsLinearGradient1008)" stroke-linecap="round" class="Down"></path><path d="M1269 417L1268 0" stroke-width="10" stroke="url(#SvgjsLinearGradient1008)" stroke-linecap="round" class="Down"></path><path d="M403 277L402 -134" stroke-width="8" stroke="url(#SvgjsLinearGradient1008)" stroke-linecap="round" class="Down"></path><path d="M544 256L543 47" stroke-width="8" stroke="url(#SvgjsLinearGradient1007)" stroke-linecap="round" class="Up"></path><path d="M905 513L904 350" stroke-width="8" stroke="url(#SvgjsLinearGradient1008)" stroke-linecap="round" class="Down"></path><path d="M1260 30L1259 -222" stroke-width="8" stroke="url(#SvgjsLinearGradient1007)" stroke-linecap="round" class="Up"></path><path d="M106 60L105 -154" stroke-width="6" stroke="url(#SvgjsLinearGradient1007)" stroke-linecap="round" class="Up"></path><path d="M95 157L94 364" stroke-width="8" stroke="url(#SvgjsLinearGradient1008)" stroke-linecap="round" class="Down"></path><path d="M795 457L794 149" stroke-width="6" stroke="url(#SvgjsLinearGradient1008)" stroke-linecap="round" class="Down"></path><path d="M90 433L89 737" stroke-width="8" stroke="url(#SvgjsLinearGradient1008)" stroke-linecap="round" class="Down"></path><path d="M1190 156L1189 -256" stroke-width="8" stroke="url(#SvgjsLinearGradient1007)" stroke-linecap="round" class="Up"></path><path d="M1019 236L1018 -53" stroke-width="6" stroke="url(#SvgjsLinearGradient1007)" stroke-linecap="round" class="Up"></path><path d="M761 334L760 743" stroke-width="10" stroke="url(#SvgjsLinearGradient1008)" stroke-linecap="round" class="Down"></path><path d="M430 67L429 427" stroke-width="8" stroke="url(#SvgjsLinearGradient1007)" stroke-linecap="round" class="Up"></path><path d="M153 424L152 136" stroke-width="10" stroke="url(#SvgjsLinearGradient1008)" stroke-linecap="round" class="Down"></path><path d="M50 187L49 338" stroke-width="8" stroke="url(#SvgjsLinearGradient1007)" stroke-linecap="round" class="Up"></path><path d="M1256 233L1255 -68" stroke-width="6" stroke="url(#SvgjsLinearGradient1007)" stroke-linecap="round" class="Up"></path><path d="M418 399L417 62" stroke-width="8" stroke="url(#SvgjsLinearGradient1007)" stroke-linecap="round" class="Up"></path><path d="M1253 337L1252 -9" stroke-width="6" stroke="url(#SvgjsLinearGradient1007)" stroke-linecap="round" class="Up"></path><path d="M125 504L124 889" stroke-width="8" stroke="url(#SvgjsLinearGradient1008)" stroke-linecap="round" class="Down"></path><path d="M665 208L664 -194" stroke-width="10" stroke="url(#SvgjsLinearGradient1008)" stroke-linecap="round" class="Down"></path><path d="M957 331L956 512" stroke-width="6" stroke="url(#SvgjsLinearGradient1008)" stroke-linecap="round" class="Down"></path><path d="M388 108L387 503" stroke-width="8" stroke="url(#SvgjsLinearGradient1007)" stroke-linecap="round" class="Up"></path><path d="M954 21L953 340" stroke-width="10" stroke="url(#SvgjsLinearGradient1008)" stroke-linecap="round" class="Down"></path><path d="M24 71L23 -218" stroke-width="10" stroke="url(#SvgjsLinearGradient1007)" stroke-linecap="round" class="Up"></path><path d="M823 459L822 99" stroke-width="10" stroke="url(#SvgjsLinearGradient1007)" stroke-linecap="round" class="Up"></path><path d="M1089 148L1088 -113" stroke-width="6" stroke="url(#SvgjsLinearGradient1008)" stroke-linecap="round" class="Down"></path></g><defs><mask id="SvgjsMask1006"><rect width="1440" height="560" fill="#ffffff"></rect></mask><linearGradient x1="0%" y1="100%" x2="0%" y2="0%" id="SvgjsLinearGradient1007"><stop stop-color="rgba(106, 118, 126, 0)" offset="0"></stop><stop stop-color="rgba(106, 118, 126, 1)" offset="1"></stop></linearGradient><linearGradient x1="0%" y1="0%" x2="0%" y2="100%" id="SvgjsLinearGradient1008"><stop stop-color="rgba(106, 118, 126, 0)" offset="0"></stop><stop stop-color="rgba(106, 118, 126, 1)" offset="1"></stop></linearGradient></defs></svg>