<svg xmlns="http://www.w3.org/2000/svg" version="1.1" xmlns:xlink="http://www.w3.org/1999/xlink" xmlns:svgjs="http://svgjs.com/svgjs" width="1440" height="560" preserveAspectRatio="none" viewBox="0 0 1440 560"><g mask="url(&quot;#SvgjsMask1001&quot;)" fill="none"><rect width="1440" height="560" x="0" y="0" fill="rgba(42, 59, 71, 1)"></rect><path d="M0,402.687C78.205,413.402,158.677,392.825,226.508,352.453C295.683,311.281,352.782,249.516,382.828,174.832C412.184,101.864,391.309,22.446,390.915,-56.205C390.449,-149.267,435.303,-254.462,380.301,-329.532C325.508,-404.316,215.92,-412.298,123.622,-421.017C42.904,-428.642,-31.215,-393.435,-110.369,-375.883C-196.387,-356.809,-304.307,-380.264,-361.686,-313.403C-419.09,-246.513,-377.219,-143.176,-385.393,-55.411C-393.058,26.882,-448.48,114.245,-408.241,186.437C-367.813,258.969,-263.228,256.541,-189.849,295.411C-124.289,330.139,-73.503,392.617,0,402.687" fill="#222f39"></path><path d="M1440 1060.012C1560.759 1081.2910000000002 1682.879 1161.025 1796.281 1114.385 1911.103 1067.161 1972.8780000000002 939.481 2016.075 823.0840000000001 2057.375 711.799 2053.92 591.605 2033.702 474.639 2013.931 360.259 1982.96 242.79700000000003 1901.478 160.127 1822.099 79.59100000000001 1702.147 67.964 1595.5819999999999 30.135999999999967 1481.898-10.219000000000051 1370.548-104.68499999999995 1255.229-69.27300000000002 1139.879-33.851 1087.897 98.61700000000002 1029.217 204.05399999999997 980.075 292.353 964.662 389.728 944.653 488.78 923.355 594.2139999999999 867.243 703.4010000000001 908.263 802.836 949.492 902.78 1058.875 954.524 1156.203 1001.597 1244.9470000000001 1044.518 1342.917 1042.905 1440 1060.012" fill="#324755"></path></g><defs><mask id="SvgjsMask1001"><rect width="1440" height="560" fill="#ffffff"></rect></mask></defs></svg>